<?xml version="1.0" standalone="no"?>
<!DOCTYPE svg PUBLIC "-//W3C//DTD SVG 20010904//EN"
 "http://www.w3.org/TR/2001/REC-SVG-20010904/DTD/svg10.dtd">
<svg version="1.0" xmlns="http://www.w3.org/2000/svg"
 width="502.000000pt" height="502.000000pt" viewBox="0 0 502.000000 502.000000"
 preserveAspectRatio="xMidYMid meet">
<metadata>
Created by potrace 1.11, written by Peter Selinger 2001-2013
</metadata>
<g transform="translate(0.000000,502.000000) scale(0.100000,-0.100000)"
fill="#000000" stroke="none">
<path d="M1740 5005 c-543 -75 -1019 -353 -1339 -780 -166 -222 -268 -434
-335 -696 -35 -135 -39 -157 -55 -284 -15 -120 -11 -1382 5 -1505 15 -114 64
-330 74 -330 4 0 7 17 7 37 0 52 13 154 27 219 2 12 15 54 27 95 13 41 23 76
24 79 0 3 6 15 13 28 7 12 10 22 7 22 -4 0 3 13 14 29 11 15 18 31 14 35 -3 3
0 6 7 6 7 0 10 3 7 7 -4 3 5 22 20 41 15 20 20 32 12 27 -15 -10 -3 8 33 49
10 11 18 24 18 28 0 5 5 14 10 21 39 46 50 61 50 69 0 5 5 6 10 3 6 -3 10 -1
10 5 0 6 16 26 36 45 20 19 32 35 27 35 -4 1 3 7 17 15 14 8 22 14 17 15 -13
0 55 69 75 75 10 4 16 10 13 15 -3 5 4 12 16 15 11 4 18 9 15 12 -7 7 33 43
46 43 5 0 7 4 3 9 -3 5 4 12 15 16 11 4 19 9 17 13 -5 10 30 42 37 35 3 -4 6
-1 6 6 0 14 66 82 73 75 3 -3 8 4 12 15 3 11 25 34 47 51 23 16 39 30 35 30
-4 0 -2 6 5 14 7 8 16 12 19 10 3 -2 12 8 19 21 7 13 17 22 21 20 4 -3 10 3
13 13 4 10 29 37 56 59 27 22 47 43 43 47 -3 3 -1 6 6 6 15 0 80 67 73 75 -3
3 2 5 11 5 9 0 19 5 23 12 5 7 3 8 -6 3 -9 -5 -11 -4 -6 3 4 7 14 12 22 12 8
0 12 5 9 10 -3 6 -2 10 2 10 5 0 18 7 29 16 10 8 13 12 5 8 -9 -5 -12 -3 -7 4
4 7 13 12 21 12 8 0 17 5 21 12 5 7 3 8 -6 3 -9 -5 -11 -4 -6 3 4 7 13 12 21
12 8 0 17 5 21 12 5 7 3 8 -6 3 -9 -5 -11 -4 -6 3 4 7 14 12 22 12 8 0 12 5 9
10 -3 6 0 10 8 10 9 0 30 18 48 40 18 21 36 37 41 34 4 -3 8 2 8 11 0 9 5 13
10 10 6 -3 10 1 10 10 0 9 4 14 9 10 5 -3 17 5 25 17 9 12 16 18 16 13 0 -5
13 3 28 18 16 15 31 24 35 21 4 -4 9 1 13 10 3 9 12 16 18 16 7 0 18 6 25 13
6 6 15 12 19 12 4 1 23 9 42 20 19 11 37 20 40 20 3 1 22 9 42 19 21 9 41 17
45 17 5 1 17 6 28 12 11 6 24 10 28 9 4 -1 17 3 28 9 11 6 30 12 42 15 12 2
33 7 47 10 14 3 39 7 55 10 17 3 41 8 55 11 14 3 88 6 165 8 140 3 221 -7 355
-40 11 -3 28 -7 38 -9 41 -10 106 -37 197 -83 131 -64 135 -67 135 -75 0 -5 7
-8 15 -8 8 0 15 -4 15 -8 0 -4 15 -16 33 -27 17 -10 38 -27 45 -37 7 -10 20
-18 28 -18 8 0 12 -4 9 -10 -3 -5 -2 -10 4 -10 5 0 36 -26 68 -57 31 -31 51
-53 43 -49 -8 4 -3 -3 13 -16 15 -13 27 -27 27 -31 0 -6 22 -35 47 -62 7 -7 9
-15 6 -19 -4 -3 -1 -6 6 -6 7 0 9 -4 6 -10 -3 -5 -1 -10 4 -10 6 0 11 -7 11
-15 0 -8 4 -15 8 -15 20 0 7 -38 -18 -55 -16 -11 -27 -21 -25 -23 5 -5 -18
-31 -25 -28 -3 1 -16 -9 -30 -22 -14 -14 -18 -21 -10 -17 8 4 4 -3 -10 -17
-14 -13 -28 -23 -32 -21 -4 2 -9 -6 -13 -16 -3 -11 -15 -23 -26 -26 -11 -4
-18 -9 -15 -13 7 -6 -64 -72 -77 -72 -5 0 -6 -4 -3 -8 3 -5 -6 -15 -19 -22
-13 -7 -22 -17 -19 -21 2 -4 -8 -15 -23 -23 -15 -8 -25 -15 -21 -16 14 0 -42
-53 -78 -72 -34 -18 -37 -18 -49 -1 -7 10 -11 21 -9 25 3 5 0 8 -6 8 -6 0 -10
6 -8 13 3 15 -52 117 -64 117 -4 0 -7 4 -6 9 2 5 -6 17 -17 26 -11 9 -13 13
-5 9 8 -4 -11 19 -43 50 -32 31 -61 56 -65 56 -4 0 -20 11 -36 25 -16 13 -33
22 -37 19 -5 -3 -9 0 -9 6 0 6 -4 9 -9 6 -5 -3 -14 1 -21 9 -7 8 -21 15 -31
15 -11 0 -19 5 -19 12 0 6 -3 9 -6 6 -3 -4 -20 -2 -37 4 -88 27 -298 31 -313
6 -2 -4 -13 -5 -24 -3 -11 2 -20 -1 -20 -6 0 -6 -4 -8 -9 -4 -5 3 -13 0 -16
-6 -4 -5 -13 -8 -21 -5 -8 3 -14 2 -14 -2 0 -5 -16 -14 -35 -21 -19 -7 -35
-17 -35 -22 0 -5 -7 -9 -16 -9 -9 0 -28 -12 -42 -27 -13 -16 -21 -21 -17 -13
3 8 -2 6 -12 -5 -10 -11 -31 -30 -47 -43 -16 -12 -25 -22 -20 -22 5 0 -4 -9
-21 -20 -16 -11 -26 -20 -21 -20 5 0 -3 -11 -18 -25 -15 -14 -32 -25 -38 -25
-6 0 -9 -3 -6 -6 7 -6 -80 -94 -93 -94 -5 0 -8 -4 -7 -8 4 -11 -219 -232 -233
-232 -7 0 -10 -3 -6 -6 7 -8 -239 -254 -254 -254 -7 0 -10 -3 -6 -6 7 -7 -116
-132 -125 -127 -5 2 -8 -3 -8 -11 0 -8 -12 -22 -27 -30 -16 -8 -25 -15 -20
-16 4 0 -10 -16 -30 -36 -21 -20 -31 -34 -23 -30 8 4 6 0 -5 -9 -11 -9 -19
-21 -18 -26 2 -5 -1 -9 -6 -9 -9 0 -43 -64 -41 -76 1 -4 -2 -10 -7 -13 -11 -8
-41 -96 -50 -146 -13 -78 -4 -230 17 -285 1 -3 3 -9 4 -15 1 -5 9 -27 19 -49
9 -21 17 -42 17 -47 0 -5 5 -9 10 -9 6 0 10 -7 10 -16 0 -31 141 -186 183
-199 9 -4 17 -10 17 -14 0 -7 99 -60 125 -68 6 -1 35 -10 65 -19 86 -24 264
-22 333 5 15 6 27 9 27 7 0 -3 32 11 70 30 39 18 70 39 70 44 0 6 4 9 8 6 5
-3 21 6 37 20 15 13 32 24 37 24 5 0 7 4 4 9 -3 5 3 11 14 14 11 3 24 17 30
31 5 14 12 26 15 26 4 0 3 -5 0 -10 -13 -20 2 -9 40 32 22 23 34 38 26 33 -10
-5 -12 -4 -7 3 4 7 13 12 21 12 8 0 17 5 21 12 5 7 3 8 -6 3 -9 -5 -11 -4 -6
3 4 7 11 12 17 12 13 0 48 37 42 44 -4 3 -1 6 6 6 16 0 42 26 34 34 -4 3 -1 6
6 6 15 0 41 25 41 39 0 5 5 13 12 17 7 5 9 2 4 -7 -4 -8 1 -4 11 9 15 18 25
21 51 16 18 -4 35 -11 38 -15 3 -5 10 -7 15 -3 5 3 15 1 22 -4 10 -8 56 -22
92 -28 6 -1 12 -3 15 -4 10 -3 44 -10 130 -26 92 -16 254 -21 383 -10 51 4 87
3 87 -2 0 -5 -144 -153 -319 -328 -377 -377 -423 -421 -478 -461 -23 -17 -39
-33 -36 -37 3 -3 0 -6 -8 -6 -8 0 -31 -11 -52 -25 -83 -57 -289 -145 -369
-159 -15 -3 -31 -7 -36 -9 -7 -5 -48 -12 -133 -23 -24 -3 -66 -6 -94 -6 -43 0
-47 -1 -25 -9 42 -17 214 -59 266 -65 27 -3 81 -9 119 -14 70 -9 1428 -6 1475
2 14 3 48 8 75 12 165 25 414 105 565 181 125 63 218 122 345 218 233 176 448
447 579 728 55 119 120 308 140 409 3 14 7 36 11 50 3 14 7 43 10 65 3 22 9
72 14 110 6 39 8 378 7 775 -3 755 -2 725 -57 956 -13 52 -25 94 -28 94 -4 0
-6 -17 -7 -38 -1 -45 -12 -138 -19 -172 -6 -23 -13 -59 -19 -85 -9 -40 -51
-161 -58 -163 -4 -2 -8 -11 -8 -21 0 -9 -5 -22 -12 -29 -7 -7 -9 -12 -5 -12 4
0 -4 -18 -18 -40 -14 -22 -23 -40 -20 -40 3 0 -4 -9 -15 -20 -12 -12 -18 -25
-15 -29 2 -5 -2 -12 -11 -15 -8 -3 -13 -10 -10 -15 3 -5 -1 -12 -10 -15 -9 -4
-15 -9 -12 -12 3 -2 -12 -24 -33 -47 -22 -23 -39 -46 -39 -51 0 -5 -16 -24
-35 -41 -19 -18 -32 -35 -28 -39 3 -3 -1 -6 -10 -6 -9 0 -23 -12 -31 -27 -8
-16 -15 -25 -16 -20 0 4 -8 -1 -18 -10 -11 -10 -17 -21 -15 -25 2 -5 -3 -8
-12 -8 -8 0 -20 -11 -25 -25 -5 -14 -12 -25 -15 -25 -4 0 -3 6 1 13 5 6 -10
-6 -32 -28 -21 -22 -38 -43 -36 -47 1 -4 -7 -9 -18 -13 -11 -4 -18 -11 -15
-16 4 -5 -1 -9 -9 -9 -9 0 -22 -13 -31 -30 -9 -16 -18 -30 -21 -30 -3 0 -2 6
1 13 7 13 1 7 -59 -66 -21 -26 -41 -45 -44 -42 -3 2 -18 -13 -34 -35 -16 -21
-38 -42 -49 -45 -10 -4 -18 -9 -16 -13 2 -4 -8 -18 -21 -32 -14 -14 -21 -18
-17 -10 5 10 1 8 -13 -4 -24 -21 -29 -30 -9 -21 6 4 3 -1 -7 -9 -11 -9 -24
-16 -29 -16 -4 0 -5 -4 -2 -10 3 -5 -1 -10 -10 -10 -9 0 -14 -4 -10 -9 3 -5
-4 -13 -16 -16 -11 -4 -18 -9 -15 -12 3 -4 -8 -16 -24 -28 -16 -12 -27 -25
-24 -28 4 -3 -5 -12 -19 -18 -15 -7 -25 -15 -24 -18 2 -3 -8 -17 -21 -31 -14
-14 -21 -19 -17 -11 5 9 4 12 -3 7 -7 -4 -12 -14 -12 -23 0 -9 -3 -13 -6 -10
-4 4 -42 -29 -85 -72 -42 -44 -80 -77 -83 -73 -3 3 -6 -2 -6 -10 0 -9 -8 -22
-17 -29 -17 -13 -17 -12 -3 6 13 19 -49 -34 -78 -65 -12 -13 -13 -13 -6 0 4 8
-14 -3 -41 -25 -27 -22 -45 -33 -40 -26 4 8 -8 2 -28 -13 -20 -16 -37 -25 -37
-21 0 5 -8 1 -18 -8 -10 -10 -22 -14 -25 -10 -4 3 -7 1 -7 -5 0 -7 -3 -11 -7
-10 -8 1 -21 -3 -83 -30 -19 -8 -39 -16 -45 -17 -5 -2 -39 -11 -75 -20 -123
-32 -164 -37 -325 -39 -133 -1 -214 6 -274 24 -19 5 -37 8 -39 5 -3 -3 -11 0
-19 6 -7 6 -13 9 -13 6 0 -2 -37 9 -82 25 -46 16 -89 30 -95 30 -7 1 -13 4
-13 8 0 4 -18 13 -40 20 -22 7 -40 17 -40 22 0 4 -5 8 -10 8 -6 0 -27 11 -48
24 -20 12 -40 24 -45 25 -4 0 -20 13 -36 27 -16 14 -32 25 -35 25 -4 -1 -27
19 -52 43 -25 25 -48 46 -51 48 -11 6 -74 68 -69 68 3 0 -10 16 -30 35 -19 19
-32 35 -29 35 4 0 0 7 -8 15 -8 8 -25 31 -38 52 -13 21 -26 40 -30 43 -18 14
-17 47 2 70 11 14 17 19 13 11 -5 -9 -3 -12 4 -7 7 4 12 14 12 22 0 8 4 13 9
9 5 -3 12 4 16 14 3 11 15 23 26 26 10 4 17 9 15 13 -4 7 19 33 25 28 2 -1 15
9 29 23 14 13 18 21 10 16 -8 -4 5 12 30 37 25 25 47 44 50 43 3 -2 19 15 35
36 17 21 38 41 48 45 10 3 16 8 13 11 -5 6 16 32 24 29 3 -1 16 9 30 22 14 14
19 21 11 17 -9 -5 -12 -4 -7 3 4 7 14 12 22 12 8 0 14 5 14 11 0 5 5 7 10 4 6
-3 10 -2 10 4 0 15 31 6 42 -12 5 -9 6 -17 3 -17 -7 0 53 -119 69 -136 27 -31
36 -44 36 -50 0 -10 81 -84 92 -84 5 0 7 -4 4 -9 -5 -8 -1 -11 29 -22 6 -2 18
-10 28 -19 10 -8 19 -13 21 -10 1 3 10 -3 20 -13 10 -9 22 -15 27 -12 5 4 9 1
9 -6 0 -7 3 -9 7 -6 3 4 12 2 19 -3 11 -10 45 -21 72 -22 6 -1 12 -4 12 -8 0
-19 274 -17 286 2 3 4 9 6 14 3 4 -3 29 4 54 15 25 10 46 17 46 13 0 -3 9 2
20 12 11 10 20 14 20 9 0 -5 7 0 15 10 8 11 15 16 15 10 0 -5 7 0 16 11 8 11
17 19 19 18 12 -7 26 -2 20 7 -3 5 -1 10 5 10 6 0 28 17 50 39 21 21 42 36 45
33 3 -3 5 0 5 6 0 13 102 118 113 114 4 -1 7 3 7 9 0 15 26 39 34 32 3 -4 6 0
6 7 0 13 49 60 63 60 5 0 6 3 4 8 -2 4 8 18 21 32 14 14 21 19 17 11 -5 -9 -4
-12 3 -7 7 4 12 11 12 15 0 13 65 81 78 81 6 0 14 5 18 12 5 7 3 8 -7 3 -8 -5
6 11 31 36 25 24 47 43 49 42 2 -2 15 13 28 32 13 19 30 35 38 35 8 0 15 5 15
11 0 6 6 16 13 22 7 7 33 31 59 54 25 23 44 44 41 46 -2 3 13 17 34 31 20 14
34 26 30 26 -5 0 4 11 19 25 15 14 32 25 37 25 6 0 8 3 4 6 -7 7 41 54 56 54
6 0 7 3 4 7 -4 3 5 15 20 25 16 10 24 18 20 18 -4 0 7 15 25 33 48 46 77 82
58 73 -12 -6 -12 -5 1 6 23 19 71 124 86 188 17 70 21 172 9 250 -11 76 -12
79 -19 86 -4 4 -7 16 -7 26 0 10 -5 18 -12 18 -6 0 -8 3 -5 6 8 8 -47 114 -74
143 -10 11 -19 23 -19 27 0 10 -61 64 -72 64 -4 0 -8 6 -8 13 -1 9 -78 66
-100 72 -3 1 -31 14 -63 28 -32 15 -66 27 -76 27 -10 0 -21 3 -25 7 -20 20
-215 21 -296 1 -64 -16 -160 -58 -160 -70 0 -5 -4 -7 -8 -4 -10 6 -92 -51 -92
-64 0 -5 -9 -12 -20 -15 -11 -3 -20 -13 -20 -21 0 -8 -3 -13 -7 -11 -10 5 -43
-30 -36 -37 4 -3 -1 -6 -11 -6 -9 0 -14 -4 -11 -10 3 -5 -1 -10 -9 -10 -9 0
-16 -6 -16 -14 0 -8 -5 -18 -12 -22 -7 -5 -8 -3 -3 6 5 9 4 11 -3 6 -7 -4 -12
-14 -12 -22 0 -8 -3 -13 -7 -11 -10 5 -43 -30 -35 -37 3 -3 -1 -6 -9 -7 -8 0
-41 -31 -74 -69 -53 -61 -95 -92 -95 -71 0 9 -100 41 -137 43 -7 1 -13 6 -13
11 0 6 -2 8 -6 5 -3 -3 -22 -2 -42 3 -60 15 -65 16 -107 23 -118 19 -256 24
-397 13 -52 -4 -88 -3 -88 3 0 5 146 154 324 332 344 344 476 471 476 460 0
-4 4 -2 8 3 11 16 70 55 82 55 6 0 8 5 5 10 -3 6 3 10 14 10 12 0 21 5 21 10
0 6 7 10 15 10 8 0 15 4 15 10 0 5 3 9 8 8 4 -1 39 13 77 31 39 18 78 34 88
36 9 2 22 7 27 10 5 3 18 8 27 10 10 3 54 14 97 25 69 17 128 26 226 35 49 4
44 7 -45 31 -213 57 -223 57 -985 60 -538 1 -728 -1 -800 -11z"/>
<path d="M1549 2453 c-13 -16 -12 -17 4 -4 9 7 17 15 17 17 0 8 -8 3 -21 -13z"/>
<path d="M529 2353 c-13 -16 -12 -17 4 -4 9 7 17 15 17 17 0 8 -8 3 -21 -13z"/>
<path d="M1429 2333 c-13 -16 -12 -17 4 -4 9 7 17 15 17 17 0 8 -8 3 -21 -13z"/>
</g>
</svg>
